<?xml version="1.0" standalone="no"?>
<!DOCTYPE svg PUBLIC "-//W3C//DTD SVG 20010904//EN"
 "http://www.w3.org/TR/2001/REC-SVG-20010904/DTD/svg10.dtd">
<svg version="1.0" xmlns="http://www.w3.org/2000/svg"
 width="912.000000pt" height="912.000000pt" viewBox="0 0 912.000000 912.000000"
 preserveAspectRatio="xMidYMid meet">
<metadata>
Created by potrace 1.14, written by Peter Selinger 2001-2017
</metadata>
<g transform="translate(0.000000,912.000000) scale(0.100000,-0.100000)"
fill="#000000" stroke="none">
<path d="M3069 9036 c-4 -3 -141 -18 -191 -20 -16 0 -28 -4 -28 -8 0 -3 -11
-5 -25 -3 -14 1 -25 -1 -25 -4 0 -4 -8 -7 -17 -8 -22 -2 -55 -9 -108 -23 -43
-11 -62 -16 -110 -26 -16 -3 -36 -11 -42 -16 -7 -6 -13 -8 -13 -4 0 8 -282
-93 -390 -141 -127 -56 -290 -138 -290 -145 0 -5 -4 -7 -9 -4 -5 3 -19 -2 -32
-12 -22 -17 -77 -47 -136 -76 -13 -6 -23 -14 -23 -18 0 -5 -7 -8 -15 -8 -8 0
-15 -4 -15 -10 0 -5 -5 -10 -12 -10 -11 0 -334 -212 -375 -247 -12 -10 -44
-34 -72 -53 -28 -19 -50 -38 -51 -42 0 -5 -7 -8 -15 -8 -8 0 -15 -4 -15 -8 0
-4 -21 -24 -48 -44 -26 -20 -57 -45 -68 -55 -12 -10 -43 -36 -70 -58 -26 -22
-70 -61 -97 -86 l-50 -47 59 -103 c32 -57 61 -108 63 -113 2 -6 8 -15 13 -21
5 -5 40 -62 79 -125 40 -63 75 -116 80 -118 5 -2 9 -8 9 -13 0 -7 115 -175
130 -189 3 -3 30 -39 61 -80 31 -41 66 -86 78 -100 11 -14 30 -36 41 -50 49
-60 65 -79 128 -149 107 -120 260 -270 362 -355 52 -44 100 -85 106 -93 6 -7
14 -13 18 -13 4 0 13 -6 20 -12 7 -7 24 -21 37 -31 71 -51 67 -45 42 -64 -11
-10 -35 -29 -53 -43 -92 -72 -259 -233 -363 -350 -61 -68 -227 -283 -227 -294
0 -4 -5 -12 -10 -19 -18 -20 -89 -134 -115 -183 -14 -26 -29 -52 -34 -58 -5
-6 -10 -14 -10 -18 -1 -5 -21 -48 -45 -98 -25 -49 -42 -90 -38 -90 4 0 2 -4
-4 -8 -12 -8 -118 -289 -129 -342 -4 -19 -10 -39 -13 -45 -4 -5 -8 -19 -9 -29
-2 -10 -12 -53 -22 -95 -23 -89 -33 -146 -45 -241 -3 -25 -8 -58 -11 -75 -35
-211 -20 -656 30 -895 3 -14 8 -38 10 -53 45 -244 185 -619 316 -847 8 -14 29
-51 47 -82 18 -31 40 -62 47 -68 8 -7 15 -18 15 -26 0 -7 6 -19 13 -26 7 -7
35 -44 62 -83 27 -38 55 -77 62 -85 75 -94 146 -173 238 -265 99 -100 147
-144 232 -213 15 -12 39 -32 53 -43 42 -35 251 -174 315 -210 33 -18 62 -35
65 -38 5 -6 222 -114 230 -115 5 -1 118 -46 165 -67 43 -18 232 -76 257 -79 4
-1 29 -7 55 -15 27 -8 59 -16 73 -19 14 -3 59 -12 100 -20 115 -23 180 -31
325 -41 131 -10 329 -10 435 0 47 4 101 8 120 10 55 4 181 26 295 50 11 3 29
7 40 9 95 19 293 82 430 137 17 7 32 13 35 13 18 4 294 145 338 172 29 19 54
34 57 34 15 0 301 208 363 264 15 13 54 48 86 78 58 52 177 172 213 214 10 12
34 41 53 64 19 24 40 48 45 54 6 6 24 29 40 51 17 22 32 42 35 45 12 11 130
189 130 195 0 4 8 19 18 33 43 61 144 258 187 365 14 34 30 71 35 82 22 45 75
215 115 365 17 65 55 276 51 287 -3 7 -2 13 2 13 4 0 8 15 9 33 1 17 5 55 8
82 9 77 11 450 2 545 -9 108 -22 207 -27 220 -1 3 -2 9 -1 13 2 10 -25 140
-38 185 -5 18 -10 36 -11 40 -3 21 -14 64 -33 127 -11 39 -22 73 -23 78 -1 4
-2 8 -4 10 -1 1 -3 10 -5 20 -2 10 -7 26 -11 35 -4 9 -8 22 -10 27 -1 6 -20
53 -42 105 -153 370 -368 693 -643 969 -93 93 -211 200 -238 215 -9 5 -20 15
-26 21 -16 19 -153 116 -240 170 -44 28 -89 56 -100 63 -11 6 -30 17 -42 24
-23 11 -31 28 -15 28 5 0 29 15 53 33 24 19 82 62 129 97 106 80 88 65 204
160 l98 81 33 -26 c19 -14 36 -25 40 -25 3 0 11 -5 18 -10 7 -6 37 -29 67 -51
154 -112 280 -221 417 -358 65 -64 129 -130 143 -147 13 -16 47 -56 74 -89 28
-33 55 -65 61 -71 5 -7 18 -22 27 -35 46 -65 98 -135 108 -146 5 -7 10 -16 10
-22 0 -5 3 -11 8 -13 11 -5 82 -115 82 -127 0 -6 4 -11 10 -11 5 0 12 -11 16
-25 3 -14 10 -25 14 -25 4 0 10 -8 13 -17 4 -10 18 -38 33 -63 57 -96 194
-385 210 -445 1 -5 16 -47 33 -92 29 -77 95 -294 106 -349 3 -13 7 -36 10 -51
3 -16 10 -44 15 -63 5 -19 12 -55 15 -79 3 -23 7 -46 10 -50 2 -4 7 -32 10
-62 4 -30 8 -67 10 -84 5 -34 14 -135 20 -210 5 -61 5 -383 0 -445 -1 -25 -6
-76 -10 -115 -4 -38 -8 -86 -10 -105 -1 -19 -5 -48 -8 -65 -3 -16 -8 -48 -12
-70 -7 -52 -14 -89 -30 -160 -2 -11 -11 -51 -20 -90 -8 -38 -18 -77 -21 -85
-3 -8 -8 -26 -10 -39 -7 -37 -102 -317 -130 -383 -40 -95 -83 -190 -104 -229
-11 -20 -17 -39 -13 -43 3 -3 1 -6 -5 -6 -7 0 -12 -5 -12 -11 0 -6 -25 -53
-55 -104 -30 -52 -55 -98 -55 -104 0 -5 -3 -11 -8 -13 -4 -1 -28 -37 -54 -78
-179 -288 -465 -605 -758 -839 -52 -42 -96 -79 -98 -83 -2 -5 -8 -8 -14 -8 -5
0 -16 -6 -23 -13 -34 -30 -43 -35 -49 -30 -3 4 -6 2 -6 -4 0 -10 -55 -48 -180
-124 -91 -56 -114 -69 -142 -80 -16 -6 -28 -15 -28 -19 0 -4 -12 -11 -27 -15
-15 -3 -30 -10 -33 -14 -7 -9 -227 -111 -240 -111 -5 0 -10 -4 -10 -10 0 -5
-7 -7 -15 -4 -8 4 -15 1 -15 -5 0 -6 -10 -11 -23 -11 -13 0 -27 -4 -32 -9 -12
-10 -87 -36 -97 -33 -5 1 -8 -2 -8 -8 0 -5 -6 -10 -12 -10 -7 0 -56 -14 -108
-31 -102 -33 -124 -39 -155 -44 -11 -2 -21 -4 -22 -5 -2 -2 -6 -3 -10 -4 -131
-31 -204 -47 -230 -49 -18 -1 -33 -6 -33 -10 0 -5 -3 -6 -8 -3 -4 2 -30 0 -57
-5 -28 -5 -72 -12 -100 -14 -27 -3 -70 -7 -95 -10 -136 -16 -429 -22 -575 -11
-99 8 -179 15 -202 20 -12 3 -46 7 -75 10 -29 4 -64 9 -78 11 -14 3 -37 7 -52
10 -15 2 -35 6 -45 9 -10 3 -34 8 -53 11 -19 3 -43 8 -52 11 -9 3 -26 7 -37 9
-43 8 -210 56 -299 85 -230 76 -537 218 -721 335 -57 36 -106 65 -111 65 -5 0
-10 4 -12 8 -2 5 -37 32 -79 60 -42 28 -83 57 -90 64 -8 7 -48 40 -89 73 -41
33 -93 75 -115 95 -64 56 -276 271 -327 330 -74 88 -142 172 -168 210 -13 19
-27 37 -30 40 -14 11 -160 238 -160 248 0 6 -4 12 -8 14 -19 7 -150 261 -220
423 -43 102 -109 276 -117 310 -1 6 -5 17 -8 25 -9 23 -35 112 -41 140 -3 14
-6 30 -7 35 -1 6 -8 30 -16 54 -7 24 -10 47 -7 52 3 5 1 9 -4 9 -6 0 -9 6 -9
13 1 6 -6 53 -15 102 -52 272 -70 543 -54 840 4 72 9 144 11 160 2 17 6 53 9
80 4 28 9 66 12 85 13 76 12 101 -1 133 -23 56 -73 82 -152 78 -21 -1 -92 -60
-94 -78 0 -4 -2 -15 -4 -23 -1 -8 -6 -35 -10 -60 -3 -25 -8 -56 -10 -70 -6
-36 -16 -126 -22 -195 -9 -104 -9 -525 -1 -525 5 0 4 -8 -1 -19 -6 -10 -8 -20
-6 -22 2 -3 7 -34 10 -69 12 -130 26 -232 45 -329 5 -30 8 -56 5 -59 -3 -3 -1
-10 4 -16 8 -10 20 -65 24 -108 1 -10 5 -18 10 -18 4 0 6 -3 3 -8 -2 -4 9 -57
26 -117 16 -61 31 -114 32 -120 2 -5 6 -17 9 -25 3 -8 20 -58 38 -110 39 -119
78 -214 150 -368 21 -46 39 -87 39 -91 0 -5 7 -14 15 -21 9 -7 14 -15 11 -17
-6 -6 182 -332 204 -353 3 -3 28 -39 55 -80 28 -41 52 -77 55 -80 3 -3 28 -34
55 -70 151 -198 369 -426 565 -590 23 -19 47 -40 53 -46 7 -6 59 -45 117 -88
58 -42 113 -84 123 -92 9 -8 19 -14 21 -14 3 0 33 -19 68 -42 222 -148 542
-303 813 -396 127 -43 260 -83 285 -87 8 -1 22 -4 30 -8 8 -3 51 -13 95 -22
44 -9 89 -18 100 -21 74 -16 189 -33 196 -29 4 3 10 2 13 -3 2 -4 23 -9 44
-10 22 -2 55 -5 73 -7 187 -27 726 -26 854 0 11 3 43 7 70 9 28 3 64 8 80 11
17 3 44 7 60 10 17 3 41 7 55 10 14 3 41 8 60 11 19 3 38 8 41 10 3 2 19 6 35
8 89 17 346 89 409 116 26 11 59 23 65 24 9 2 75 28 117 47 24 11 45 19 48 19
32 0 469 228 487 255 4 5 8 7 8 3 0 -7 58 28 86 51 5 4 21 14 34 21 13 7 29
17 34 22 6 5 47 34 91 66 44 31 85 61 91 67 6 5 23 19 39 30 123 89 389 340
505 476 25 29 55 65 67 79 32 36 85 102 108 134 11 16 25 33 30 40 23 24 144
205 188 281 26 44 52 87 57 95 19 29 90 170 89 176 0 4 3 10 8 13 26 18 204
457 230 566 6 27 9 37 16 55 10 25 46 163 52 199 3 19 7 37 9 40 2 3 7 22 10
41 3 19 8 46 11 60 27 119 47 266 61 445 10 124 10 494 1 595 -4 41 -10 100
-13 130 -3 30 -8 69 -10 85 -3 17 -7 41 -9 55 -14 101 -55 294 -90 425 -9 33
-18 67 -20 75 -2 8 -4 16 -5 18 -2 1 -3 5 -4 10 -9 32 -41 125 -76 217 -23 61
-49 132 -59 158 -10 26 -23 53 -30 60 -6 6 -11 16 -11 22 0 5 -7 23 -15 39 -9
16 -13 32 -9 35 7 8 97 39 149 52 22 6 44 14 50 20 5 5 16 9 25 9 8 0 26 6 40
13 14 7 48 21 75 31 187 69 570 276 677 366 13 11 48 38 78 62 85 65 202 178
287 278 42 49 140 193 148 219 3 11 11 21 16 21 5 0 9 4 9 10 0 5 14 39 30 75
17 36 30 71 30 78 0 7 4 17 9 23 11 11 52 158 54 192 0 6 3 12 6 12 3 0 6 12
7 28 0 15 5 61 10 102 15 122 8 406 -11 500 -3 14 -7 41 -10 60 -2 19 -4 35
-5 35 -1 0 -4 11 -6 24 -2 14 -11 54 -20 90 -9 37 -18 76 -20 89 -8 39 -75
254 -85 274 -6 11 -12 27 -14 36 -7 31 -33 98 -64 166 -17 36 -31 69 -31 72 0
10 -142 290 -153 301 -10 10 -37 5 -127 -22 -63 -19 -140 -44 -170 -55 -30
-12 -59 -23 -65 -24 -11 -3 -14 -4 -135 -54 -181 -74 -474 -233 -585 -318 -25
-19 -48 -34 -51 -34 -11 0 -150 -119 -233 -200 -87 -85 -201 -220 -201 -239 0
-5 -3 -11 -7 -13 -22 -9 -101 -154 -147 -268 -25 -61 -57 -167 -60 -200 -1 -9
-5 -21 -9 -27 -4 -6 -9 -29 -11 -50 -3 -21 -8 -69 -12 -108 -10 -90 -10 -265
0 -380 10 -103 14 -140 16 -140 2 0 6 -20 14 -65 10 -63 25 -134 35 -167 5
-18 7 -33 4 -33 -3 0 -1 -6 5 -12 5 -7 12 -26 15 -43 3 -16 12 -52 21 -79 8
-27 11 -45 7 -40 -4 5 -32 40 -62 79 -122 157 -336 378 -498 515 -53 44 -69
58 -110 93 -12 9 -23 17 -26 17 -4 0 -39 28 -69 55 -6 6 -32 24 -58 40 -27 17
-48 33 -48 38 0 4 -6 7 -12 7 -7 0 -25 10 -40 23 -15 12 -57 40 -93 62 -36 22
-65 43 -65 47 0 21 -280 447 -331 504 -11 11 -19 24 -19 28 0 4 -6 13 -12 20
-22 22 -51 59 -96 119 -23 31 -48 57 -54 57 -6 0 -9 3 -5 6 3 3 -4 16 -16 29
-12 12 -38 42 -57 66 -37 47 -331 344 -390 395 -19 16 -73 60 -120 97 -47 38
-92 74 -101 81 -54 44 -267 177 -371 231 -174 91 -398 174 -542 201 -11 2 -32
6 -46 9 -14 3 -45 8 -70 11 -25 3 -64 9 -86 13 -42 8 -387 14 -395 7z"/>
</g>
</svg>
